HIERARCHY
ROOT mixamorig:Hips
{
	OFFSET 0.000000 69.776680 0.000000
	CHANNELS 6 Xposition Yposition Zposition Xrotation Yrotation Zrotation
	JOINT mixamorig:Spine
	{
		OFFSET 0.000000 3.962402 -0.274300
		CHANNELS 6 Xposition Yposition Zposition Xrotation Yrotation Zrotation
		JOINT mixamorig:Spine1
		{
			OFFSET 0.000000 14.122147 -0.320033
			CHANNELS 6 Xposition Yposition Zposition Xrotation Yrotation Zrotation
			JOINT mixamorig:Spine2
			{
				OFFSET 0.000000 11.399124 -0.365735
				CHANNELS 6 Xposition Yposition Zposition Xrotation Yrotation Zrotation
				JOINT mixamorig:Neck
				{
					OFFSET 0.000000 9.938187 -0.411442
					CHANNELS 6 Xposition Yposition Zposition Xrotation Yrotation Zrotation
					JOINT mixamorig:Head
					{
						OFFSET 0.000000 8.579102 0.114200
						CHANNELS 6 Xposition Yposition Zposition Xrotation Yrotation Zrotation
						JOINT mixamorig:HeadTop_End
						{
							OFFSET 0.000000 25.089104 0.333900
							CHANNELS 6 Xposition Yposition Zposition Xrotation Yrotation Zrotation
							End Site
							{
								OFFSET 0.000000 25.091324 0.000000
							}
						}
					}
				}
				JOINT mixamorig:LeftShoulder
				{
					OFFSET 4.224100 8.888443 -0.424631
					CHANNELS 6 Xposition Yposition Zposition Xrotation Yrotation Zrotation
					JOINT mixamorig:LeftArm
					{
						OFFSET 8.606815 -2.106979 -0.026412
						CHANNELS 3 Xrotation Yrotation Zrotation
						JOINT mixamorig:LeftForeArm
						{
							OFFSET 18.975199 0.000000 0.000001
							CHANNELS 3 Xrotation Yrotation Zrotation
							JOINT mixamorig:LeftHand
							{
								OFFSET 19.896011 0.000000 0.000001
								CHANNELS 3 Xrotation Yrotation Zrotation
								JOINT mixamorig:LeftHandThumb1
								{
									OFFSET 2.354134 -1.272461 1.802826
									CHANNELS 6 Xposition Yposition Zposition Xrotation Yrotation Zrotation
									JOINT mixamorig:LeftHandThumb2
									{
										OFFSET 1.999432 -1.154373 1.154373
										CHANNELS 6 Xposition Yposition Zposition Xrotation Yrotation Zrotation
										JOINT mixamorig:LeftHandThumb3
										{
											OFFSET 2.113319 -1.220123 1.220126
											CHANNELS 6 Xposition Yposition Zposition Xrotation Yrotation Zrotation
											JOINT mixamorig:LeftHandThumb4
											{
												OFFSET 1.744274 -1.007057 1.007057
												CHANNELS 6 Xposition Yposition Zposition Xrotation Yrotation Zrotation
												End Site
												{
													OFFSET 1.605682 -1.003258 1.219047
												}
											}
										}
									}
								}
								JOINT mixamorig:LeftHandIndex1
								{
									OFFSET 7.198479 -0.169243 1.742686
									CHANNELS 6 Xposition Yposition Zposition Xrotation Yrotation Zrotation
									JOINT mixamorig:LeftHandIndex2
									{
										OFFSET 2.844902 0.000000 0.000000
										CHANNELS 6 Xposition Yposition Zposition Xrotation Yrotation Zrotation
										JOINT mixamorig:LeftHandIndex3
										{
											OFFSET 2.665497 0.000000 0.000000
											CHANNELS 6 Xposition Yposition Zposition Xrotation Yrotation Zrotation
											JOINT mixamorig:LeftHandIndex4
											{
												OFFSET 2.297401 0.000000 0.000000
												CHANNELS 6 Xposition Yposition Zposition Xrotation Yrotation Zrotation
												End Site
												{
													OFFSET 2.297401 0.000000 0.000300
												}
											}
										}
									}
								}
								JOINT mixamorig:LeftHandMiddle1
								{
									OFFSET 6.876549 0.000000 0.000000
									CHANNELS 6 Xposition Yposition Zposition Xrotation Yrotation Zrotation
									JOINT mixamorig:LeftHandMiddle2
									{
										OFFSET 3.256821 0.000000 0.000000
										CHANNELS 6 Xposition Yposition Zposition Xrotation Yrotation Zrotation
										JOINT mixamorig:LeftHandMiddle3
										{
											OFFSET 3.177902 0.000000 0.000000
											CHANNELS 6 Xposition Yposition Zposition Xrotation Yrotation Zrotation
											JOINT mixamorig:LeftHandMiddle4
											{
												OFFSET 2.695129 0.000000 0.000000
												CHANNELS 6 Xposition Yposition Zposition Xrotation Yrotation Zrotation
												End Site
												{
													OFFSET 2.695099 -0.000191 0.012399
												}
											}
										}
									}
								}
								JOINT mixamorig:LeftHandRing1
								{
									OFFSET 6.623886 -0.059456 -1.696961
									CHANNELS 6 Xposition Yposition Zposition Xrotation Yrotation Zrotation
									JOINT mixamorig:LeftHandRing2
									{
										OFFSET 2.958004 0.000000 0.000000
										CHANNELS 6 Xposition Yposition Zposition Xrotation Yrotation Zrotation
										JOINT mixamorig:LeftHandRing3
										{
											OFFSET 2.756901 0.000000 0.000000
											CHANNELS 6 Xposition Yposition Zposition Xrotation Yrotation Zrotation
											JOINT mixamorig:LeftHandRing4
											{
												OFFSET 2.334602 0.000000 0.000000
												CHANNELS 6 Xposition Yposition Zposition Xrotation Yrotation Zrotation
												End Site
												{
													OFFSET 2.334602 -0.000031 0.001500
												}
											}
										}
									}
								}
								JOINT mixamorig:LeftHandPinky1
								{
									OFFSET 6.046967 -0.139206 -3.244337
									CHANNELS 6 Xposition Yposition Zposition Xrotation Yrotation Zrotation
									JOINT mixamorig:LeftHandPinky2
									{
										OFFSET 2.623703 0.000000 0.000000
										CHANNELS 6 Xposition Yposition Zposition Xrotation Yrotation Zrotation
										JOINT mixamorig:LeftHandPinky3
										{
											OFFSET 2.132103 0.000000 0.000000
											CHANNELS 6 Xposition Yposition Zposition Xrotation Yrotation Zrotation
											JOINT mixamorig:LeftHandPinky4
											{
												OFFSET 1.793213 0.000000 0.000000
												CHANNELS 6 Xposition Yposition Zposition Xrotation Yrotation Zrotation
												End Site
												{
													OFFSET 1.793198 0.000099 -0.007099
												}
											}
										}
									}
								}
							}
						}
					}
				}
				JOINT mixamorig:RightShoulder
				{
					OFFSET -4.224100 8.888435 -0.398208
					CHANNELS 6 Xposition Yposition Zposition Xrotation Yrotation Zrotation
					JOINT mixamorig:RightArm
					{
						OFFSET -8.606817 -2.106972 0.026400
						CHANNELS 3 Xrotation Yrotation Zrotation
						JOINT mixamorig:RightForeArm
						{
							OFFSET -18.973604 0.000000 -0.000000
							CHANNELS 3 Xrotation Yrotation Zrotation
							JOINT mixamorig:RightHand
							{
								OFFSET -19.898298 0.000000 -0.000000
								CHANNELS 3 Xrotation Yrotation Zrotation
								JOINT mixamorig:RightHandThumb1
								{
									OFFSET -2.342537 -1.287621 1.805296
									CHANNELS 6 Xposition Yposition Zposition Xrotation Yrotation Zrotation
									JOINT mixamorig:RightHandThumb2
									{
										OFFSET -1.998871 -1.154045 1.154048
										CHANNELS 6 Xposition Yposition Zposition Xrotation Yrotation Zrotation
										JOINT mixamorig:RightHandThumb3
										{
											OFFSET -2.115639 -1.221466 1.221465
											CHANNELS 6 Xposition Yposition Zposition Xrotation Yrotation Zrotation
											JOINT mixamorig:RightHandThumb4
											{
												OFFSET -1.745159 -1.007568 1.007568
												CHANNELS 6 Xposition Yposition Zposition Xrotation Yrotation Zrotation
												End Site
												{
													OFFSET -1.638237 -1.006813 1.174085
												}
											}
										}
									}
								}
								JOINT mixamorig:RightHandIndex1
								{
									OFFSET -7.289619 -0.160568 1.788511
									CHANNELS 6 Xposition Yposition Zposition Xrotation Yrotation Zrotation
									JOINT mixamorig:RightHandIndex2
									{
										OFFSET -2.816299 0.000000 -0.000000
										CHANNELS 6 Xposition Yposition Zposition Xrotation Yrotation Zrotation
										JOINT mixamorig:RightHandIndex3
										{
											OFFSET -2.639603 0.000000 -0.000000
											CHANNELS 6 Xposition Yposition Zposition Xrotation Yrotation Zrotation
											JOINT mixamorig:RightHandIndex4
											{
												OFFSET -2.241501 0.000000 -0.000000
												CHANNELS 6 Xposition Yposition Zposition Xrotation Yrotation Zrotation
												End Site
												{
													OFFSET -2.241501 0.000000 -0.000300
												}
											}
										}
									}
								}
								JOINT mixamorig:RightHandMiddle1
								{
									OFFSET -7.060406 0.000000 -0.000000
									CHANNELS 6 Xposition Yposition Zposition Xrotation Yrotation Zrotation
									JOINT mixamorig:RightHandMiddle2
									{
										OFFSET -3.340210 0.000000 0.000000
										CHANNELS 6 Xposition Yposition Zposition Xrotation Yrotation Zrotation
										JOINT mixamorig:RightHandMiddle3
										{
											OFFSET -3.056713 0.000000 0.000000
											CHANNELS 6 Xposition Yposition Zposition Xrotation Yrotation Zrotation
											JOINT mixamorig:RightHandMiddle4
											{
												OFFSET -2.639503 0.000000 0.000000
												CHANNELS 6 Xposition Yposition Zposition Xrotation Yrotation Zrotation
												End Site
												{
													OFFSET -2.639503 -0.000008 0.000600
												}
											}
										}
									}
								}
								JOINT mixamorig:RightHandRing1
								{
									OFFSET -6.774601 0.049789 -1.636027
									CHANNELS 6 Xposition Yposition Zposition Xrotation Yrotation Zrotation
									JOINT mixamorig:RightHandRing2
									{
										OFFSET -2.923901 0.000000 0.000000
										CHANNELS 6 Xposition Yposition Zposition Xrotation Yrotation Zrotation
										JOINT mixamorig:RightHandRing3
										{
											OFFSET -2.718002 0.000000 0.000000
											CHANNELS 6 Xposition Yposition Zposition Xrotation Yrotation Zrotation
											JOINT mixamorig:RightHandRing4
											{
												OFFSET -2.379601 0.000000 0.000000
												CHANNELS 6 Xposition Yposition Zposition Xrotation Yrotation Zrotation
												End Site
												{
													OFFSET -2.379601 0.000000 -0.000300
												}
											}
										}
									}
								}
								JOINT mixamorig:RightHandPinky1
								{
									OFFSET -6.148533 -0.175697 -3.130196
									CHANNELS 6 Xposition Yposition Zposition Xrotation Yrotation Zrotation
									JOINT mixamorig:RightHandPinky2
									{
										OFFSET -2.627903 0.000000 0.000000
										CHANNELS 6 Xposition Yposition Zposition Xrotation Yrotation Zrotation
										JOINT mixamorig:RightHandPinky3
										{
											OFFSET -2.122501 0.000000 0.000000
											CHANNELS 6 Xposition Yposition Zposition Xrotation Yrotation Zrotation
											JOINT mixamorig:RightHandPinky4
											{
												OFFSET -1.792004 0.000000 0.000000
												CHANNELS 6 Xposition Yposition Zposition Xrotation Yrotation Zrotation
												End Site
												{
													OFFSET -1.792000 0.000046 -0.004500
												}
											}
										}
									}
								}
							}
						}
					}
				}
			}
		}
	}
	JOINT mixamorig:LeftUpLeg
	{
		OFFSET 7.557000 -4.826302 0.300500
		CHANNELS 6 Xposition Yposition Zposition Xrotation Yrotation Zrotation
		JOINT mixamorig:LeftLeg
		{
			OFFSET 0.315538 -24.058289 0.537030
			CHANNELS 6 Xposition Yposition Zposition Xrotation Yrotation Zrotation
			JOINT mixamorig:LeftFoot
			{
				OFFSET -0.315538 -33.061485 0.084935
				CHANNELS 6 Xposition Yposition Zposition Xrotation Yrotation Zrotation
				JOINT mixamorig:LeftToeBase
				{
					OFFSET 0.092043 -7.483322 10.511632
					CHANNELS 6 Xposition Yposition Zposition Xrotation Yrotation Zrotation
					JOINT mixamorig:LeftToe_End
					{
						OFFSET 0.082187 -0.046743 6.420126
						CHANNELS 6 Xposition Yposition Zposition Xrotation Yrotation Zrotation
						End Site
						{
							OFFSET 0.096298 -0.054795 6.419865
						}
					}
				}
			}
		}
	}
	JOINT mixamorig:RightUpLeg
	{
		OFFSET -7.557000 -4.826302 0.300500
		CHANNELS 6 Xposition Yposition Zposition Xrotation Yrotation Zrotation
		JOINT mixamorig:RightLeg
		{
			OFFSET -0.315556 -24.058254 0.712177
			CHANNELS 6 Xposition Yposition Zposition Xrotation Yrotation Zrotation
			JOINT mixamorig:RightFoot
			{
				OFFSET 0.315562 -33.061455 0.096916
				CHANNELS 6 Xposition Yposition Zposition Xrotation Yrotation Zrotation
				JOINT mixamorig:RightToeBase
				{
					OFFSET -0.092061 -7.483409 10.296515
					CHANNELS 6 Xposition Yposition Zposition Xrotation Yrotation Zrotation
					JOINT mixamorig:RightToe_End
					{
						OFFSET -0.082209 -0.046778 6.411424
						CHANNELS 6 Xposition Yposition Zposition Xrotation Yrotation Zrotation
						End Site
						{
							OFFSET -0.096323 -0.054825 6.411163
						}
					}
				}
			}
		}
	}
}
MOTION
Frames: 3
Frame Time: 0.033333
40.959896 60.568336 -10.460152 22.938992 -17.867558 3.393785 0.000002 3.962399 -0.274303 20.841445 11.045672 -14.725657 -0.000003 14.122127 -0.320033 -1.801816 2.159317 -2.886322 0.000007 11.399124 -0.365728 -1.760715 2.024519 -3.008262 0.000003 9.938169 -0.411436 -9.066069 -1.443663 -1.433577 0.000001 8.579110 0.114201 -18.574699 -8.822291 -1.579966 -0.000001 25.089104 0.333899 0.000002 0.000000 0.000000 4.224104 8.888438 -0.424628 0.020976 1.200257 4.271766 7.193840 32.138465 -47.059430 0.000014 -71.914679 0.000001 1.762010 -2.847636 25.047007 2.354131 -1.272468 1.802819 1.714746 8.968610 7.327191 1.999423 -1.154374 1.154376 1.419681 0.379079 -1.002830 2.113320 -1.220106 1.220126 -2.101058 -1.061061 2.973637 1.744273 -1.007050 1.007064 -0.000000 -0.000005 -0.000002 7.198484 -0.169242 1.742687 2.757107 -10.798731 15.140451 2.844905 -0.000010 0.000004 3.114420 5.762802 -56.747599 2.665502 -0.000001 -0.000005 1.427258 4.202243 -37.505515 2.297396 -0.000006 -0.000003 0.000001 -0.000000 -0.000001 6.876546 -0.000006 -0.000000 0.277086 -8.942587 1.292278 3.256792 0.000004 0.000003 1.442688 4.222173 -37.715239 3.177890 -0.000008 -0.000002 0.743191 3.116576 -26.819230 2.695122 -0.000015 -0.000002 -0.000000 0.000000 0.000000 6.623885 -0.059447 -1.696961 -1.908052 -6.418368 -15.190151 2.958003 0.000005 0.000000 0.321429 2.083075 -17.541370 2.756912 0.000004 -0.000002 0.123889 1.302896 -10.863114 2.334606 0.000015 -0.000001 -0.000003 0.000001 0.000002 6.046962 -0.139205 -3.244336 0.460603 2.597618 -28.272009 2.623701 -0.000011 0.000001 -0.018074 -4.052337 -0.526945 2.132108 0.000000 -0.000005 0.002769 -0.195384 1.619136 1.793218 0.000006 0.000000 -0.000002 0.000002 0.000001 -4.224099 8.888419 -0.398207 -0.320832 -1.827416 -9.973403 -39.584133 31.382445 10.223046 -0.000023 54.156833 0.000020 -7.652970 28.586266 -9.682317 -2.342541 -1.287601 1.805295 -5.362558 -8.029963 -16.278438 -1.998879 -1.154048 1.154049 1.652519 0.398656 1.033305 -2.115649 -1.221458 1.221463 -5.951919 8.672171 -2.907856 -1.745159 -1.007567 1.007570 0.000002 -0.000003 0.000002 -7.289629 -0.160568 1.788510 0.001985 1.453575 0.079940 -2.816285 -0.000006 -0.000002 1.220956 -3.940542 34.418935 -2.639604 0.000005 -0.000001 0.106689 -1.215809 10.029107 -2.241513 -0.000010 -0.000001 -0.000002 0.000001 0.000003 -7.060403 0.000015 -0.000001 0.005908 -0.415891 6.274333 -3.340207 0.000015 0.000002 0.570752 -2.763553 23.334044 -3.056706 0.000009 0.000003 0.306295 -0.859534 7.338150 -2.639492 0.000009 -0.000003 -0.000001 0.000002 0.000002 -6.774601 0.049800 -1.636027 0.160908 -1.499004 14.167172 -2.923894 -0.000000 0.000001 0.129049 -1.336068 11.033240 -2.718004 -0.000014 -0.000001 0.049796 -0.236176 1.950242 -2.379596 -0.000001 -0.000001 0.000000 0.000001 0.000001 -6.148533 -0.175695 -3.130194 0.635361 -2.942184 21.176248 -2.627899 0.000015 -0.000002 0.000003 0.000001 -0.000011 -2.122487 0.000024 -0.000000 0.005020 0.264732 -2.172830 -1.792010 0.000015 0.000003 -0.000001 -0.000002 -0.000001 7.557006 -4.826307 0.300498 -73.317668 1.084824 17.931250 0.315532 -24.058300 0.537026 50.069081 4.666671 -10.520786 -0.315544 -33.061481 0.084938 1.804470 25.483863 5.148279 0.092046 -7.483321 10.511629 -6.507219 -0.000011 0.000001 0.082187 -0.046742 6.420125 0.000000 0.000001 -0.000000 -7.556998 -4.826299 0.300497 14.755370 -5.817692 4.386910 -0.315558 -24.058262 0.712174 17.497471 -5.506995 0.797200 0.315564 -33.061455 0.096917 19.476011 3.877797 30.005929 -0.092063 -7.483408 10.296520 -24.138922 2.650652 -7.724905 -0.082207 -0.046779 6.411426 -0.000004 0.000000 -0.000000 
42.209660 60.561272 -12.151295 23.863561 -19.502845 5.538857 -0.000001 3.962409 -0.274301 18.909730 13.003667 -15.663512 -0.000003 14.122143 -0.320034 -1.253356 2.379537 -3.345047 0.000002 11.399132 -0.365736 -1.197108 2.252764 -3.454199 -0.000001 9.938180 -0.411443 -8.914190 -1.596518 -1.387646 -0.000006 8.579111 0.114196 -17.528945 -9.560452 -1.454752 -0.000004 25.089088 0.333902 -0.000001 0.000000 0.000000 4.224102 8.888438 -0.424633 -0.091079 2.056917 4.418360 11.435851 31.855183 -51.257199 0.000002 -70.888915 -0.000019 2.012447 -2.694375 24.208683 2.354121 -1.272475 1.802824 2.035504 9.160155 6.855662 1.999421 -1.154360 1.154375 1.385327 0.344824 -1.003581 2.113317 -1.220131 1.220118 -2.382903 -1.568795 3.027259 1.744273 -1.007048 1.007062 -0.000000 -0.000004 -0.000002 7.198472 -0.169246 1.742687 2.998821 -11.147746 15.958389 2.844905 0.000011 0.000005 3.113455 5.762186 -56.738054 2.665496 -0.000007 0.000000 1.446917 4.227637 -37.772818 2.297401 -0.000006 -0.000007 0.000000 -0.000000 0.000000 6.876544 -0.000024 0.000001 0.377834 -9.333274 1.834492 3.256828 0.000016 0.000004 1.437565 4.215579 -37.645718 3.177896 -0.000005 0.000000 0.748667 3.127347 -26.919582 2.695130 0.000008 -0.000001 -0.000002 0.000000 -0.000000 6.623872 -0.059445 -1.696957 -1.966870 -6.808902 -14.944020 2.958001 -0.000009 0.000003 0.318040 2.072297 -17.447735 2.756906 0.000009 -0.000004 0.121463 1.290216 -10.756021 2.334601 -0.000013 -0.000006 0.000000 0.000000 0.000001 6.046956 -0.139219 -3.244336 0.307692 2.310526 -28.219632 2.623699 -0.000011 -0.000001 -0.018085 -4.056688 -0.491002 2.132114 0.000023 -0.000004 0.003761 -0.228491 1.893729 1.793222 -0.000009 0.000005 0.000000 -0.000001 -0.000001 -4.224105 8.888423 -0.398207 -0.540058 -2.698682 -11.153840 -42.222075 35.663003 13.765960 -0.000023 58.052592 0.000016 -6.250600 31.940027 -9.188779 -2.342542 -1.287628 1.805291 -2.067230 -10.767097 -13.063311 -1.998881 -1.154037 1.154054 1.653489 0.418735 0.958056 -2.115642 -1.221458 1.221475 -5.819261 8.469882 -2.841551 -1.745165 -1.007563 1.007573 0.000004 -0.000003 -0.000001 -7.289630 -0.160577 1.788507 -0.061490 0.638149 4.064135 -2.816294 -0.000005 -0.000001 0.944663 -3.504271 30.165093 -2.639621 0.000004 -0.000001 0.037316 -0.721013 5.927116 -2.241503 0.000013 0.000002 -0.000000 -0.000001 0.000005 -7.060416 0.000011 -0.000005 0.119152 -1.297833 9.129157 -3.340210 0.000007 0.000002 0.449305 -2.463282 20.670770 -3.056704 0.000007 0.000001 0.342743 -0.517518 4.459879 -2.639499 0.000005 0.000007 -0.000002 -0.000002 0.000002 -6.774613 0.049779 -1.636032 0.379177 -2.306886 15.811278 -2.923890 -0.000010 -0.000006 0.103503 -1.197651 9.877795 -2.717995 -0.000001 0.000006 0.138053 -0.094203 0.788569 -2.379598 -0.000025 0.000005 -0.000002 0.000002 -0.000001 -6.148535 -0.175705 -3.130198 0.843823 -3.445220 21.909891 -2.627910 0.000002 -0.000001 -0.000002 0.000011 0.000012 -2.122498 0.000010 0.000002 0.004012 0.236651 -1.942221 -1.791996 0.000002 0.000004 -0.000000 -0.000004 0.000000 7.556997 -4.826303 0.300496 -72.927562 1.107433 16.337654 0.315539 -24.058292 0.537032 46.206267 4.457872 -10.569430 -0.315534 -33.061489 0.084939 4.245143 28.236584 5.627154 0.092038 -7.483324 10.511629 -6.604134 -0.000004 0.000002 0.082182 -0.046743 6.420116 0.000000 0.000000 -0.000000 -7.557001 -4.826301 0.300501 21.217824 -5.176201 6.061474 -0.315554 -24.058254 0.712178 6.197338 -2.176368 1.975511 0.315556 -33.061459 0.096916 26.285081 5.590763 29.281796 -0.092065 -7.483401 10.296515 -20.069172 2.932328 -12.622060 -0.082215 -0.046768 6.411420 0.000004 0.000001 -0.000002 
43.710754 60.261795 -13.876419 24.279543 -20.948860 7.611565 0.000006 3.962394 -0.274298 17.901969 14.263117 -16.306008 -0.000002 14.122130 -0.320029 -0.870328 2.528332 -3.866155 0.000002 11.399136 -0.365735 -0.796359 2.401395 -3.965022 -0.000000 9.938203 -0.411440 -8.583424 -1.725903 -1.357767 0.000001 8.579105 0.114200 -16.781182 -10.163039 -1.401655 -0.000003 25.089088 0.333902 0.000000 0.000000 -0.000000 4.224103 8.888460 -0.424623 -0.227429 3.095849 4.494965 15.557467 31.180118 -55.069657 0.000017 -70.313621 0.000004 3.079076 -2.526875 23.462601 2.354125 -1.272472 1.802825 2.392028 9.447621 6.428758 1.999426 -1.154373 1.154370 1.295481 0.081831 -1.016773 2.113322 -1.220136 1.220124 -2.781614 -2.283266 3.114100 1.744277 -1.007057 1.007060 0.000001 -0.000002 -0.000002 7.198477 -0.169247 1.742686 2.926319 -10.641337 16.453231 2.844884 -0.000008 0.000001 3.135475 5.776473 -56.957033 2.665497 -0.000003 0.000001 1.434286 4.211352 -37.601294 2.297402 -0.000001 -0.000004 0.000001 -0.000000 -0.000000 6.876542 -0.000017 0.000003 0.427006 -9.006089 2.269757 3.256814 0.000012 0.000002 1.446767 4.227481 -37.770912 3.177896 -0.000001 -0.000001 0.742236 3.114585 -26.800791 2.695122 -0.000008 0.000010 0.000002 -0.000000 -0.000000 6.623888 -0.059454 -1.696959 -1.887437 -6.708284 -14.587343 2.958014 -0.000010 0.000004 0.319992 2.078508 -17.501784 2.756907 0.000005 0.000002 0.119590 1.280239 -10.671830 2.334605 0.000013 0.000001 0.000000 -0.000000 -0.000001 6.046956 -0.139214 -3.244337 0.296242 2.277120 -27.920355 2.623706 0.000008 0.000000 -0.018104 -4.056673 -0.491029 2.132098 0.000014 -0.000002 0.004013 -0.235591 1.952596 1.793208 -0.000015 0.000001 -0.000001 0.000000 0.000003 -4.224107 8.888439 -0.398203 -0.704440 -3.279865 -12.037432 -45.386300 39.055650 18.003325 -0.000039 62.980676 0.000039 -2.870152 32.612576 -9.177373 -2.342544 -1.287617 1.805296 -0.183068 -10.722513 -10.172114 -1.998875 -1.154050 1.154047 1.784352 -0.138423 1.191641 -2.115641 -1.221466 1.221467 -5.017054 6.920440 -2.768878 -1.745160 -1.007554 1.007576 0.000004 -0.000001 0.000000 -7.289625 -0.160577 1.788514 -0.040377 0.925528 2.294765 -2.816292 -0.000017 -0.000006 0.984359 -3.571602 30.808439 -2.639611 0.000003 0.000001 0.037077 -0.718499 5.906512 -2.241499 0.000018 -0.000003 0.000001 0.000001 -0.000001 -7.060417 -0.000001 0.000001 0.078858 -1.043796 7.919380 -3.340207 0.000019 0.000001 0.464759 -2.503838 21.027555 -3.056714 0.000004 0.000001 0.332720 -0.523761 4.506119 -2.639492 0.000001 -0.000005 -0.000001 0.000002 0.000002 -6.774602 0.049790 -1.636023 0.331584 -2.148911 15.214935 -2.923897 0.000004 0.000001 0.106747 -1.216196 10.032225 -2.717997 -0.000016 0.000004 0.134534 -0.100905 0.844379 -2.379587 -0.000021 0.000000 -0.000000 0.000001 -0.000003 -6.148533 -0.175704 -3.130194 0.815876 -3.380315 21.798626 -2.627912 -0.000009 -0.000001 0.000007 0.000003 0.000001 -2.122503 0.000006 -0.000002 0.003748 0.228778 -1.877670 -1.792002 -0.000013 0.000003 -0.000001 0.000001 -0.000001 7.557007 -4.826302 0.300500 -72.767633 1.078564 14.400416 0.315536 -24.058294 0.537030 43.281037 4.502456 -10.194992 -0.315537 -33.061485 0.084939 6.673541 29.713635 5.599372 0.092042 -7.483325 10.511634 -6.924673 0.000009 0.000001 0.082181 -0.046743 6.420118 0.000000 -0.000001 -0.000000 -7.556996 -4.826287 0.300502 23.510310 -4.641864 6.759133 -0.315558 -24.058254 0.712182 1.364364 -0.275035 2.562973 0.315564 -33.061455 0.096924 29.713273 5.586744 26.521105 -0.092062 -7.483406 10.296518 -28.561025 4.718262 -16.815753 -0.082199 -0.046787 6.411418 -0.000002 -0.000002 0.000003 
